<svg height="512" viewBox="0 0 152 152" width="512" xmlns="http://www.w3.org/2000/svg" xmlns:xlink="http://www.w3.org/1999/xlink"><linearGradient id="linear-gradient" gradientUnits="userSpaceOnUse" x1="23.55" x2="135.91" y1="23.55" y2="135.91"><stop offset="0" stop-color="#1d7ecc"/><stop offset="1" stop-color="#03a9f4"/></linearGradient><linearGradient id="linear-gradient-2" gradientUnits="userSpaceOnUse" x1="58.28" x2="126.28" y1="68.54" y2="136.55"><stop offset="0" stop-color="#0d47a1"/><stop offset="1" stop-color="#0d47a1" stop-opacity="0"/></linearGradient><g id="Layer_2" data-name="Layer 2"><g id="_18.Avatar" data-name="18.Avatar"><path id="background" d="m152 76a76 76 0 0 1 -74 76h-2a76 76 0 1 1 76-76z" fill="url(#linear-gradient)"/><path id="shadow" d="m149.35 95.94a76.06 76.06 0 0 1 -71.35 56.06l-35.11-35.17 35.54-30.51-18.32-18.32 30.65-30.65z" fill="url(#linear-gradient-2)"/><g id="Icon"><g id="Icon-2" fill="#fff" data-name="Icon"><path d="m97.11 52.67a20.91 20.91 0 0 1 -6.35 15.33 20.76 20.76 0 0 1 -14.76 6.33 5.43 5.43 0 0 1 -.57 0 21.68 21.68 0 0 1 -21.67-21.66 21.68 21.68 0 0 1 21.67-21.67 5.43 5.43 0 0 1 .57 0 20.76 20.76 0 0 1 14.76 6.33 21 21 0 0 1 6.35 15.34z"/><path d="m113.55 105.53c0 4.7-1.51 8.5-4.44 11.3s-6.76 4.17-11.44 4.17h-43.34c-4.68 0-8.52-1.39-11.44-4.17s-4.44-6.6-4.44-11.3c0-1.82.06-3.6.18-5.32a53.31 53.31 0 0 1 .74-5.69 43.4 43.4 0 0 1 1.39-5.71 28.71 28.71 0 0 1 2.35-5.34 20.32 20.32 0 0 1 3.54-4.63 15.66 15.66 0 0 1 5.11-3.19 17.27 17.27 0 0 1 6.49-1.17c.92 0 1.8.36 3.53 1.48 1.06.7 2.29 1.51 3.67 2.37a20.23 20.23 0 0 0 4.73 2.09 18.43 18.43 0 0 0 11.62 0 20.9 20.9 0 0 0 4.75-2.09c1.38-.88 2.63-1.67 3.67-2.37 1.73-1.12 2.61-1.48 3.53-1.48a17.27 17.27 0 0 1 6.49 1.17 15.66 15.66 0 0 1 5.11 3.19 20.32 20.32 0 0 1 3.54 4.63 28.71 28.71 0 0 1 2.35 5.34 43.4 43.4 0 0 1 1.39 5.71 53.31 53.31 0 0 1 .74 5.69c.11 1.7.18 3.5.18 5.32z"/></g><g id="Shade" fill="#4d4d4d"><path d="m76 31v43.33a5.43 5.43 0 0 1 -.57 0 21.68 21.68 0 0 1 -21.67-21.66 21.68 21.68 0 0 1 21.67-21.67 5.43 5.43 0 0 1 .57 0z" opacity=".25"/><path d="m70.18 80.42a18.74 18.74 0 0 0 5.82.94v39.64h-21.67c-4.68 0-8.52-1.39-11.44-4.17s-4.44-6.6-4.44-11.3c0-1.82.06-3.6.18-5.32a53.31 53.31 0 0 1 .74-5.69 43.4 43.4 0 0 1 1.39-5.71 28.71 28.71 0 0 1 2.35-5.34 20.32 20.32 0 0 1 3.54-4.63 15.66 15.66 0 0 1 5.11-3.19 17.27 17.27 0 0 1 6.49-1.17c.92 0 1.8.36 3.53 1.48 1.06.7 2.29 1.51 3.67 2.37a20.23 20.23 0 0 0 4.73 2.09z" opacity=".25"/></g></g></g></g></svg>