<svg width="290" height="48" viewBox="0 0 290 48" fill="none" xmlns="http://www.w3.org/2000/svg">
<g clip-path="url(#clip0_6_5)">
<path d="M2.405 37V18.648H6.586L6.956 21.756C7.52333 20.6707 8.33733 19.8073 9.398 19.166C10.4833 18.5247 11.7537 18.204 13.209 18.204C15.4783 18.204 17.242 18.9193 18.5 20.35C19.758 21.7807 20.387 23.8773 20.387 26.64V37H15.651V27.084C15.651 25.5053 15.3303 24.2967 14.689 23.458C14.0477 22.6193 13.0487 22.2 11.692 22.2C10.36 22.2 9.26233 22.6687 8.399 23.606C7.56033 24.5433 7.141 25.8507 7.141 27.528V37H2.405ZM31.7977 37.444C29.5037 37.444 27.7277 36.7287 26.4697 35.298C25.2364 33.8673 24.6197 31.7707 24.6197 29.008V18.648H29.3187V28.564C29.3187 30.1427 29.6394 31.3513 30.2807 32.19C30.9221 33.0287 31.9334 33.448 33.3147 33.448C34.6221 33.448 35.6951 32.9793 36.5337 32.042C37.3971 31.1047 37.8287 29.7973 37.8287 28.12V18.648H42.5647V37H38.3837L38.0137 33.892C37.4464 34.9773 36.6201 35.8407 35.5347 36.482C34.4741 37.1233 33.2284 37.444 31.7977 37.444ZM47.4265 37V18.648H51.6445L52.0885 22.089C52.7545 20.905 53.6548 19.9677 54.7895 19.277C55.9488 18.5617 57.3055 18.204 58.8595 18.204V23.199H57.5275C56.4915 23.199 55.5665 23.3593 54.7525 23.68C53.9385 24.0007 53.2972 24.5557 52.8285 25.345C52.3845 26.1343 52.1625 27.232 52.1625 28.638V37H47.4265ZM70.6882 37.444C68.8382 37.444 67.1979 37.0493 65.7672 36.26C64.3365 35.4707 63.2142 34.3607 62.4002 32.93C61.5862 31.4993 61.1792 29.8467 61.1792 27.972C61.1792 26.0727 61.5739 24.383 62.3632 22.903C63.1772 21.423 64.2872 20.276 65.6932 19.462C67.1239 18.6233 68.8012 18.204 70.7252 18.204C72.5259 18.204 74.1169 18.5987 75.4982 19.388C76.8795 20.1773 77.9525 21.2627 78.7172 22.644C79.5065 24.0007 79.9012 25.5177 79.9012 27.195C79.9012 27.4663 79.8889 27.75 79.8642 28.046C79.8642 28.342 79.8519 28.6503 79.8272 28.971H65.8782C65.9769 30.4017 66.4702 31.524 67.3582 32.338C68.2709 33.152 69.3685 33.559 70.6512 33.559C71.6132 33.559 72.4149 33.3493 73.0562 32.93C73.7222 32.486 74.2155 31.9187 74.5362 31.228H79.3462C79.0009 32.3873 78.4212 33.448 77.6072 34.41C76.8179 35.3473 75.8312 36.0873 74.6472 36.63C73.4879 37.1727 72.1682 37.444 70.6882 37.444ZM70.7252 22.052C69.5659 22.052 68.5422 22.385 67.6542 23.051C66.7662 23.6923 66.1989 24.679 65.9522 26.011H75.0912C75.0172 24.8023 74.5732 23.8403 73.7592 23.125C72.9452 22.4097 71.9339 22.052 70.7252 22.052ZM91.7363 37C89.8123 37 88.2706 36.5313 87.1113 35.594C85.952 34.6567 85.3723 32.9917 85.3723 30.599V22.607H82.2273V18.648H85.3723L85.9273 13.727H90.1083V18.648H95.0663V22.607H90.1083V30.636C90.1083 31.524 90.2933 32.1407 90.6633 32.486C91.058 32.8067 91.724 32.967 92.6613 32.967H94.9553V37H91.7363ZM107.31 37C105.386 37 103.844 36.5313 102.685 35.594C101.525 34.6567 100.946 32.9917 100.946 30.599V22.607H97.8005V18.648H100.946L101.501 13.727H105.682V18.648H110.64V22.607H105.682V30.636C105.682 31.524 105.867 32.1407 106.237 32.486C106.631 32.8067 107.297 32.967 108.235 32.967H110.529V37H107.31ZM117.259 15.799C116.395 15.799 115.68 15.54 115.113 15.022C114.57 14.504 114.299 13.8503 114.299 13.061C114.299 12.2717 114.57 11.6303 115.113 11.137C115.68 10.619 116.395 10.36 117.259 10.36C118.122 10.36 118.825 10.619 119.368 11.137C119.935 11.6303 120.219 12.2717 120.219 13.061C120.219 13.8503 119.935 14.504 119.368 15.022C118.825 15.54 118.122 15.799 117.259 15.799ZM114.891 37V18.648H119.627V37H114.891ZM124.57 37V18.648H128.751L129.121 21.756C129.688 20.6707 130.502 19.8073 131.563 19.166C132.648 18.5247 133.919 18.204 135.374 18.204C137.643 18.204 139.407 18.9193 140.665 20.35C141.923 21.7807 142.552 23.8773 142.552 26.64V37H137.816V27.084C137.816 25.5053 137.495 24.2967 136.854 23.458C136.213 22.6193 135.214 22.2 133.857 22.2C132.525 22.2 131.427 22.6687 130.564 23.606C129.725 24.5433 129.306 25.8507 129.306 27.528V37H124.57ZM157.635 37V10.36H160.743V26.381L168.254 18.648H172.065L163.925 26.936L173.101 37H169.142L160.743 27.491V37H157.635ZM182.24 37.444C180.711 37.444 179.44 37.185 178.429 36.667C177.418 36.149 176.665 35.4583 176.172 34.595C175.679 33.7317 175.432 32.7943 175.432 31.783C175.432 29.9083 176.147 28.4653 177.578 27.454C179.009 26.4427 180.957 25.937 183.424 25.937H188.382V25.715C188.382 24.1117 187.963 22.903 187.124 22.089C186.285 21.2503 185.163 20.831 183.757 20.831C182.548 20.831 181.5 21.1393 180.612 21.756C179.749 22.348 179.206 23.2237 178.984 24.383H175.802C175.925 23.051 176.369 21.9287 177.134 21.016C177.923 20.1033 178.898 19.4127 180.057 18.944C181.216 18.4507 182.45 18.204 183.757 18.204C186.322 18.204 188.246 18.8947 189.529 20.276C190.836 21.6327 191.49 23.4457 191.49 25.715V37H188.715L188.53 33.707C188.012 34.743 187.247 35.631 186.236 36.371C185.249 37.0863 183.917 37.444 182.24 37.444ZM182.721 34.817C183.905 34.817 184.916 34.5087 185.755 33.892C186.618 33.2753 187.272 32.4737 187.716 31.487C188.16 30.5003 188.382 29.4643 188.382 28.379V28.342H183.683C181.858 28.342 180.563 28.6627 179.798 29.304C179.058 29.9207 178.688 30.6977 178.688 31.635C178.688 32.597 179.033 33.374 179.724 33.966C180.439 34.5333 181.438 34.817 182.721 34.817ZM197.609 45.14L202.16 35.224H201.087L193.798 18.648H197.165L203.233 32.93L209.671 18.648H212.89L200.865 45.14H197.609ZM216.17 37V18.648H218.982L219.167 21.941C219.759 20.7817 220.61 19.869 221.72 19.203C222.83 18.537 224.088 18.204 225.494 18.204C227.665 18.204 229.392 18.87 230.674 20.202C231.982 21.5093 232.635 23.532 232.635 26.27V37H229.527V26.603C229.527 22.7797 227.949 20.868 224.791 20.868C223.213 20.868 221.893 21.4477 220.832 22.607C219.796 23.7417 219.278 25.3697 219.278 27.491V37H216.17ZM243.449 37.444C241.92 37.444 240.649 37.185 239.638 36.667C238.627 36.149 237.874 35.4583 237.381 34.595C236.888 33.7317 236.641 32.7943 236.641 31.783C236.641 29.9083 237.356 28.4653 238.787 27.454C240.218 26.4427 242.166 25.937 244.633 25.937H249.591V25.715C249.591 24.1117 249.172 22.903 248.333 22.089C247.494 21.2503 246.372 20.831 244.966 20.831C243.757 20.831 242.709 21.1393 241.821 21.756C240.958 22.348 240.415 23.2237 240.193 24.383H237.011C237.134 23.051 237.578 21.9287 238.343 21.016C239.132 20.1033 240.107 19.4127 241.266 18.944C242.425 18.4507 243.659 18.204 244.966 18.204C247.531 18.204 249.455 18.8947 250.738 20.276C252.045 21.6327 252.699 23.4457 252.699 25.715V37H249.924L249.739 33.707C249.221 34.743 248.456 35.631 247.445 36.371C246.458 37.0863 245.126 37.444 243.449 37.444ZM243.93 34.817C245.114 34.817 246.125 34.5087 246.964 33.892C247.827 33.2753 248.481 32.4737 248.925 31.487C249.369 30.5003 249.591 29.4643 249.591 28.379V28.342H244.892C243.067 28.342 241.772 28.6627 241.007 29.304C240.267 29.9207 239.897 30.6977 239.897 31.635C239.897 32.597 240.242 33.374 240.933 33.966C241.648 34.5333 242.647 34.817 243.93 34.817ZM257.362 37V18.648H260.174L260.433 22.163C261 20.9543 261.863 19.9923 263.023 19.277C264.182 18.5617 265.613 18.204 267.315 18.204V21.46H266.464C265.378 21.46 264.379 21.6573 263.467 22.052C262.554 22.422 261.826 23.0633 261.284 23.976C260.741 24.8887 260.47 26.1467 260.47 27.75V37H257.362Z" fill="white"/>
<path d="M269.19 37.356V33H273.326V37.356H269.19Z" fill="#F13024"/>
</g>
<defs>
<clipPath id="clip0_6_5">
<rect width="290" height="48" fill="white"/>
</clipPath>
</defs>
</svg>
